<svg xmlns="http://www.w3.org/2000/svg" viewBox="0 0 64 64" width="64" height="64">
  <rect width="64" height="64" rx="16" fill="#0f3d2d" />
  <path
    d="M32 17 C 27 13.5 19 12 13 13.5 V 44 C 19 42.5 27 44 32 47.5 C 37 44 45 42.5 51 44 V 13.5 C 45 12 37 13.5 32 17 Z"
    fill="#f6f1e3"
    opacity="0.94"
  />
  <path d="M32 17 V 47.5" stroke="#0f3d2d" stroke-width="1.6" stroke-linecap="round" opacity="0.5" />
  <path d="M17.5 20 C 21.5 19 26 19.6 29.5 21.8" stroke="#0f3d2d" stroke-width="1.5" stroke-linecap="round" fill="none" opacity="0.35" />
  <path d="M17.5 26.5 C 21.5 25.5 26 26.1 29.5 28.3" stroke="#0f3d2d" stroke-width="1.5" stroke-linecap="round" fill="none" opacity="0.35" />
  <path d="M34.5 21.8 C 38 19.6 42.5 19 46.5 20" stroke="#0f3d2d" stroke-width="1.5" stroke-linecap="round" fill="none" opacity="0.35" />
  <path d="M34.5 28.3 C 38 26.1 42.5 25.5 46.5 26.5" stroke="#0f3d2d" stroke-width="1.5" stroke-linecap="round" fill="none" opacity="0.35" />
  <path
    d="M32 17 C 31 12.5 32.5 8.5 37 6 C 36.5 11 34.5 14.5 32 17 Z"
    fill="#27b892"
  />
  <path
    d="M32 17 C 33 13 36 10 37 6 C 33.8 8.5 31.5 12 31 16.2 Z"
    fill="#5eecc2"
    opacity="0.8"
  />
</svg>
